<svg id="Layer_1" data-name="Layer 1" xmlns="http://www.w3.org/2000/svg" viewBox="0 0 689.48 515.93"><defs><style>.cls-1{fill:#bdd0e7;}</style></defs><path class="cls-1" d="M341.9,101.1c3.15,16.36,6.1,31.84,9.14,47.31.69,3.49-2,4.05-4.07,5.27C318,170.36,288.61,186.23,260.36,204c-27.07,17-50.59,38.42-68.43,65.45-16,24.24-23.85,50.82-21.54,79.91s16.34,52.25,39.18,70.17c14,11,29.74,18.77,46.07,25.54a158,158,0,0,1,17.93,8.63c5.56,3.18,6.06,5.29,2.19,10.39-10.76,14.18-21.43,28.47-32.92,42.05-30.54,36.1-61.54,71.79-92.17,107.8-3.17,3.72-5.27,3.94-9.35,1.41-33.84-21.05-65.18-45-89.72-76.88-18.92-24.61-31.39-52-35.33-83-2.67-21-1.21-41.9,2.17-62.65C28.85,329,61.23,277.12,107,232.87c59.34-57.42,130.16-95.52,207.42-122.61C323.27,107.14,332.27,104.3,341.9,101.1Z" transform="translate(-14.89 -101.1)"/><path class="cls-1" d="M499.75,616.72c-46.27-27.59-88.09-59.53-112.88-109.15-12.62-25.25-17.36-52.11-16.54-80.23,1.86-64.3,25.92-119.68,67.43-167.82,41.31-47.92,91.58-84.39,147.47-113.4A682,682,0,0,1,689.1,103c1.57-.51,3.16-1,5.39-1.66,1.66,7.27,3.31,14.31,4.85,21.38s2.75,14.37,4.62,21.42c1.1,4.17,0,6.21-3.76,8.23C668,169.67,636,187.57,606.06,208.65,578.41,228.1,554,250.77,537.89,281c-15.27,28.73-20.31,59-10.09,90.59,7.64,23.62,23.71,40.78,44.45,53.28,12.31,7.42,25.82,12.82,38.76,19.2,5.2,2.56,10.56,4.91,15.38,8.07,5.29,3.46,6,6.72,2.16,11.74-11.63,15.4-23.09,31-35.58,45.66-30.21,35.49-61,70.51-91.51,105.71A18.93,18.93,0,0,1,499.75,616.72Z" transform="translate(-14.89 -101.1)"/></svg>